<?xml version="1.0" encoding="utf-8"?>
<!-- Generator: Adobe Illustrator 22.1.0, SVG Export Plug-In . SVG Version: 6.00 Build 0)  -->
<svg version="1.1" id="Layer_1" xmlns="http://www.w3.org/2000/svg" xmlns:xlink="http://www.w3.org/1999/xlink" x="0px" y="0px"
	 viewBox="0 0 512 512" style="enable-background:new 0 0 512 512;" xml:space="preserve">
<g>
	<title>arduino</title>
	<g>
		<path d="M477.6,315.3c-1.1-59.8-50.5-107.4-110.2-106.4c-5.5,0-11.3,0.4-16.9,1c-47.2,7-78.7,40.9-96.2,66.9
			c-17.8-26.1-49.5-60-96.4-66.9c-5.6-0.5-11.2-1-16.9-1c-59.7-0.9-109,46.6-110.1,106.4c1.1,59.7,50.3,107.2,110.1,106.4
			c5.6,0,11.2-0.4,17.2-1.2c47.2-6.7,78.7-40.7,96.4-66.7c17.8,26.1,49.3,60,96.4,66.9c5.8,0.5,11.3,1,17.1,1
			C427.6,422.2,476.5,374.8,477.6,315.3L477.6,315.3z M152.5,382.9c-3.7,0.7-8,0.7-11.8,0.7c-38.9,0.8-71.1-29.8-72.2-68.6
			c1.2-38.9,33.5-69.5,72.3-68.6c3.8,0,7.9,0.4,11.8,0.7c44.5,6.6,71.6,50.1,80.9,67.9c-9.4,17.8-36.5,61.9-80.9,67.9H152.5z
			 M274.8,315.3c9.2-17.4,36.4-61.3,80.8-67.9c3.8-0.7,7.9-0.7,11.6-0.7c39-1.2,71.5,29.6,72.6,68.6c-1.3,38.8-33.5,69.4-72.4,68.6
			c-3.8,0-7.9-0.4-11.6-0.7c-44.2-6.6-71.6-50.5-80.8-67.9H274.8z M110,326.4h66.4v-21.8h-66.2v21.8H110z M374.9,326.4h22.3v-21.8
			h-22.6v-22.3h-21.2v22.6H331v21.5h22.5v22.1h21.6v-21.9L374.9,326.4z M481,222.7c0,5.6-4.1,9.6-10,9.6c-5.3,0.2-9.8-4-9.9-9.4
			c0-5.3,4.5-9.7,9.9-9.7C476.9,213.1,481,217.3,481,222.7L481,222.7z M463.9,222.7c0,4.2,3,7.5,7.5,7.5c4.2,0,7.2-3.4,7.2-7.5
			c0-4.1-3-7.5-7.2-7.5C467,214.8,463.9,218.2,463.9,222.7z M469.6,227.6h-1.9v-9.7l3.7-0.2c1.7,0,2.6,0.2,3.4,0.6
			c0.7,0.4,1.1,1.1,1.1,2.1c0,1.1-0.7,1.9-2,2c1,0.4,1.3,1.2,1.7,2.5l0.5,2.4h-2.2c-0.4-0.4-0.4-1.3-0.8-2.4c-0.4-1-0.7-1.3-2-1.3
			h-0.9l-0.4,4.1L469.6,227.6z M469.9,221.9h1.1c1.3,0,1.9-0.2,1.9-1.3c0-1-0.6-1.3-1.9-1.3h-1.3v2.6L469.9,221.9z"/>
	</g>
</g>
</svg>
