<?xml version="1.0" encoding="utf-8"?>
<!-- Svg Vector Icons : http://www.onlinewebfonts.com/icon -->
<!DOCTYPE svg PUBLIC "-//W3C//DTD SVG 1.1//EN" "http://www.w3.org/Graphics/SVG/1.1/DTD/svg11.dtd">
<svg version="1.1" xmlns="http://www.w3.org/2000/svg" xmlns:xlink="http://www.w3.org/1999/xlink" x="0px" y="0px" viewBox="0 0 1000 1000" enable-background="new 0 0 1000 1000" xml:space="preserve">
<metadata> Svg Vector Icons : http://www.onlinewebfonts.com/icon </metadata>
<g><g transform="translate(0.000000,511.000000) scale(0.100000,-0.100000)"><path d="M836.5,4888.5c2.5-215.7,560.4-8560.1,572.8-8572.5c19.8-22.3,3503.9-1106,3551-1106c34.7,0,3092.3,902.6,3494,1031.6c101.7,32.3,119,49.6,128.9,116.6c7.4,44.6,86.8,1177.9,176.1,2521.9c89.3,1344,218.2,3260.9,287.7,4262.7c67,1001.8,119,1822.6,116.5,1825.1c-5,2.5-1879.6,14.9-4166,24.8l-4161,17.4V4888.5z M7670.7,3085.7c9.9-12.4-520.7-5314.1-533.1-5326.5c-29.7-32.2-2092.9-669.5-2159.9-667.1c-34.7,0-540.6,143.8-1128.3,319.9l-1066.3,317.4l-54.6,704.2c-29.8,389.3-54.6,766.2-54.6,838.2l-2.5,129h533.1h533.1v-389.3c0-215.7,9.9-404.2,19.8-421.6c9.9-14.9,290.1-111.6,624.9-215.7l607.5-186l592.7,158.7c324.8,86.8,592.6,161.2,597.6,166.2c7.4,7.4,161.2,1376.2,161.2,1428.3c0,22.3-272.8,29.8-1277.1,29.8H3787.4v543.1v543.1l1301.9,17.4l1301.9,17.4l12.4,79.3c5,42.2,34.7,245.5,62,448.8c27.3,205.8,57,409.2,64.5,456.3l12.4,84.3l-2078-9.9l-2078-9.9l-17.4,260.4c-7.4,143.8-22.3,364.5-32.2,493.5l-14.9,233.1L4995,3108C6465.5,3098.1,7668.2,3088.2,7670.7,3085.7z"/></g></g>
</svg>