<?xml version="1.0" encoding="utf-8"?>
<!-- Svg Vector Icons : http://www.onlinewebfonts.com/icon -->
<!DOCTYPE svg PUBLIC "-//W3C//DTD SVG 1.1//EN" "http://www.w3.org/Graphics/SVG/1.1/DTD/svg11.dtd">
<svg version="1.1" xmlns="http://www.w3.org/2000/svg" xmlns:xlink="http://www.w3.org/1999/xlink" x="0px" y="0px" viewBox="0 0 1000 1000" enable-background="new 0 0 1000 1000" xml:space="preserve">
<metadata> Svg Vector Icons : http://www.onlinewebfonts.com/icon </metadata>
<g><path d="M406.3,763l-72.1-100.9v-14.4c0,0-7.2-7.2-7.2-14.4l-21.6-28.8l-7.2-28.8c0-7.2-7.2-14.4-7.2-14.4c0-7.2-7.2-7.2,0-7.2l14.4-7.2c-7.2,14.4-21.6,21.6-21.6,36c-7.2,7.2-14.4,21.6-14.4,36c-7.2,21.6-7.2,50.4-7.2,79.3v14.4h-14.4l0,0c0,0,0,0,7.2-7.2c7.2-7.2,0,0,0,0l0,0l-7.2,7.2h-14.4c-21.6-7.2-36-21.6-43.2-36l-7.2-21.6c0-7.2-7.2-14.4-7.2-21.6c-7.2-28.8-14.4-57.6-14.4-86.5c0-28.8,0-57.6,7.2-86.5c7.2-14.4,7.2-28.8,14.4-43.2c0-7.2,0-14.4,7.2-14.4c0-7.2,0-7.2,0,0v-7.2c0,0,0,0-7.2-7.2l-14.4-7.2c0,0,0,0-7.2-7.2v-7.2l-14.4-21.6c-7.2-7.2-7.2-14.4-14.4-21.6c-14.4-36-21.6-64.9-28.8-93.7l-7.2-21.6V201l0,0l-14.4-7.2l-21.6-36c-7.2-14.4-21.6-21.6-28.8-43.2c-7.2-7.2-14.4-14.4-14.4-21.6c0-7.2-14.4-28.8,0-50.4L10,49.6c7.2-7.2,7.2-21.6,14.4-28.8c7.2-7.2,14.4-7.2,21.6-14.4L31.6,20.8C46,6.4,53.2,13.6,60.4,6.4c7.2,0,14.4,0,14.4,0c7.2,0,14.4,7.2,28.8,7.2h7.2h7.2L132.5,28l14.4,7.2l36,21.6c14.4,7.2,14.4,7.2,14.4,14.4l7.2,7.2c0,0,7.2,7.2,0,0h-7.2h14.4h7.2l0,0c14.4,0,36,0,64.9,7.2c28.8,7.2,50.4,14.4,72.1,21.6c21.6,7.2,43.2,21.6,57.6,36c14.4,14.4,36,28.8,50.4,43.2c36,28.8,64.9,64.9,93.7,100.9c14.4,21.6,28.8,36,36,57.6c14.4,21.6,28.8,43.2,36,64.9l14.4,28.8l14.4,28.8l21.6,64.9l21.6,57.6c7.2,7.2,7.2,21.6,14.4,28.8c7.2,7.2,14.4,21.6,7.2,14.4c14.4,7.2,28.8,14.4,57.6,21.6c7.2,7.2,21.6,7.2,28.8,14.4c14.4,7.2,28.8,14.4,36,21.6l50.4,36l28.8,21.6c7.2,7.2,21.6,7.2,28.8,36l7.2,21.6h-28.8c-28.8,0-57.6,0-79.3,0c-14.4,0-28.8,7.2-36,7.2c-7.2,0-14.4,7.2-21.6,7.2c-7.2,0-7.2,0-7.2,0l-7.2-14.4c7.2,7.2,7.2,14.4,7.2,21.6v7.2c0,0,0,7.2,7.2,7.2l14.4,7.2l14.4,14.4l57.6,43.2L990,993.6c-43.2-21.6-79.3-50.4-122.5-72.1l-50.4-43.2l-14.4-7.2c-7.2-7.2-7.2-7.2-14.4-14.4l-7.2-7.2c-7.2-7.2-7.2-7.2-7.2-14.4c0-7.2-7.2-7.2-7.2-7.2h-7.2v-14.4c0-7.2,7.2-14.4,7.2-21.6c7.2-7.2,7.2-7.2,14.4-7.2c7.2,0,7.2,0,21.6-7.2c14.4-7.2,28.8-14.4,43.2-14.4c28.8-7.2,57.6-7.2,86.5-7.2l-21.6,21.6c0,7.2-7.2-7.2-14.4-7.2l-28.8-14.4L817.1,727c-7.2-7.2-14.4-7.2-21.6-14.4c-7.2,0-21.6-7.2-28.8-14.4c-14.4-7.2-36-7.2-64.9-21.6c-21.6-14.4-28.8-21.6-36-28.8c-7.2-14.4-7.2-21.6-14.4-36c-14.4-21.6-21.6-36-28.8-57.6l-28.8-57.6l-14.4-28.8l-14.4-28.8c-7.2-21.6-14.4-36-28.8-57.6c-7.2-14.4-21.6-36-28.8-50.4c-28.8-28.8-57.6-64.9-86.5-86.5c-14.4-14.4-28.8-28.8-50.4-36c-14.4-14.4-28.8-21.6-50.4-36c-14.4-7.2-36-14.4-50.4-21.6c-7.2-7.2-36,0-64.9-7.2h7.2h-14.4h-7.2h-7.2c-7.2-7.2-21.6-14.4-21.6-14.4l-14.4-7.2c0,0-7.2-7.2,0,0l-36-21.6l-14.4-7.2l-7.2-7.2h-7.2l0,0c-7.2,0-7.2,0-14.4-7.2l0,0c0,0,7.2,0,14.4-7.2l-14.4,7.2c0,0,0,0,7.2-7.2c7.2-7.2,7.2-7.2,7.2-14.4l-7.2,14.4c7.2-14.4,0-14.4,7.2-7.2c0,7.2,7.2,7.2,7.2,14.4c0,14.4,14.4,21.6,21.6,36l28.8,43.2l7.2,14.4c0,0,0,0,7.2,7.2v7.2l7.2,21.6c7.2,28.8,14.4,64.9,28.8,86.5l7.2,14.4l14.4,21.6v7.2c0-7.2,0,0,0,0l7.2,7.2c7.2,7.2,14.4,14.4,21.6,36v-7.2c7.2,21.6,0,28.8,0,36c0,7.2-7.2,14.4-7.2,21.6c-7.2,21.6-14.4,28.8-14.4,43.2c-7.2,21.6-7.2,50.4-14.4,72.1c0,28.8,0,50.4,7.2,72.1c0,7.2,7.2,14.4,7.2,14.4l7.2,14.4c7.2,21.6,14.4,28.8,14.4,28.8l-21.6,7.2l0,0l0,0c14.4-7.2,14.4-7.2,14.4-7.2l0,0L219,691c7.2-28.8,7.2-57.6,14.4-86.5c7.2,0,7.2-14.4,14.4-14.4c0-7.2,7.2-14.4,14.4-21.6c0-14.4,14.4-21.6,21.6-36L291,518l7.2,14.4c14.4,7.2,14.4,14.4,14.4,21.6s0,7.2,0,7.2l14.4,28.8l14.4,28.8c0,7.2,0,7.2,7.2,14.4l7.2,14.4L406.3,763z"/></g>
</svg>